<?xml version="1.0" encoding="UTF-8" standalone="no"?>
<svg
   version="1.0"
   width="464.24857pt"
   height="585.81293pt"
   viewBox="0 0 464.24857 585.81293"
   preserveAspectRatio="xMidYMid"
   id="svg9"
   xmlns="http://www.w3.org/2000/svg"
   xmlns:svg="http://www.w3.org/2000/svg">
  <defs
     id="defs9" />
  <metadata
     id="metadata1">
Created by potrace 1.16, written by Peter Selinger 2001-2019
</metadata>
  <g
     transform="matrix(0.1,0,0,-0.1,-274.57979,857.81291)"
     fill="#000000"
     stroke="none"
     id="g9">
    <path
       d="m 4900,8569 c -647,-39 -1361,-319 -1885,-740 -93,-75 -192,-162 -219,-194 l -49,-57 -1,-702 c -1,-730 0,-749 45,-1036 43,-272 152,-678 254,-940 202,-519 543,-1040 935,-1429 260,-257 639,-531 960,-693 63,-32 122,-58 130,-58 43,0 337,165 480,270 36,26 94,66 130,90 120,80 274,213 451,390 449,448 791,999 1009,1623 120,346 212,798 240,1185 15,197 8,1279 -8,1308 -20,37 -195,196 -312,284 -216,161 -565,366 -725,425 -38,14 -131,50 -205,80 -275,109 -561,172 -880,195 -157,11 -165,11 -350,-1 z m 396,-289 c 313,-26 636,-118 997,-286 254,-117 436,-235 753,-484 l 44,-35 2,-120 c 1,-66 3,-138 4,-160 2,-22 4,-233 5,-470 3,-395 1,-445 -19,-615 -48,-390 -194,-937 -326,-1223 -20,-42 -36,-80 -36,-83 0,-12 -97,-205 -145,-289 -109,-188 -130,-223 -208,-340 -97,-145 -113,-167 -243,-320 -255,-299 -482,-489 -907,-755 l -148,-93 -22,20 c -12,12 -62,43 -112,71 -452,250 -791,540 -1075,917 -369,491 -625,1060 -750,1670 -80,392 -93,585 -86,1268 4,439 8,522 20,529 8,4 40,33 73,63 218,205 630,438 1026,580 286,102 436,135 732,158 95,8 302,6 421,-3 z"
       id="path1" />
    <path
       d="m 4960,7953 c -281,-22 -589,-145 -818,-326 -363,-286 -598,-689 -652,-1112 -12,-93 -2,-140 37,-177 50,-46 70,-52 119,-33 42,16 104,74 104,98 1,35 23,166 46,267 82,364 346,683 722,870 163,81 289,114 482,126 428,26 839,-171 1106,-529 153,-206 226,-384 285,-692 9,-50 19,-67 54,-102 37,-38 48,-43 88,-43 41,0 49,4 80,41 43,49 47,71 35,167 -65,527 -404,1021 -875,1279 -224,122 -544,187 -813,166 z"
       id="path2" />
    <path
       d="m 4921,7329 c -227,-29 -480,-180 -628,-374 -100,-131 -170,-289 -197,-448 -17,-98 -9,-133 44,-181 47,-42 87,-47 137,-16 49,29 64,62 90,183 27,135 64,212 149,311 75,89 137,135 246,185 97,45 144,57 253,66 273,23 544,-112 678,-337 34,-57 78,-177 107,-297 16,-63 73,-121 128,-128 40,-5 44,-3 88,41 l 47,46 -6,78 c -23,283 -179,545 -422,704 -196,129 -349,179 -539,177 -61,-1 -140,-5 -175,-10 z"
       id="path3" />
    <path
       d="m 4943,6721 c -103,-38 -175,-106 -214,-201 -22,-55 -17,-183 10,-252 60,-153 215,-239 383,-210 122,21 195,66 259,158 44,64 60,120 60,202 0,87 -23,143 -88,213 -65,70 -144,101 -263,106 -76,3 -105,0 -147,-16 z m 207,-199 c 74,-37 102,-131 60,-199 -20,-34 -104,-83 -141,-83 -34,0 -105,46 -128,84 -40,64 -21,134 51,186 48,35 104,40 158,12 z"
       id="path4" />
    <path
       d="m 3620,6050 c -108,-19 -194,-128 -176,-222 10,-54 60,-124 108,-151 24,-14 67,-27 96,-30 29,-4 57,-9 62,-12 6,-3 10,-41 10,-84 0,-61 4,-82 17,-92 12,-11 76,-15 289,-17 l 274,-4 150,-156 150,-157 4,-335 c 2,-184 5,-530 5,-767 1,-360 3,-433 15,-433 7,0 44,-22 82,-50 38,-27 72,-50 76,-50 5,0 8,383 8,851 v 851 l -180,185 c -172,177 -220,241 -220,290 0,12 13,43 30,70 39,63 57,151 40,193 -17,41 -92,106 -131,114 -114,23 -224,-27 -258,-117 -15,-40 -14,-113 3,-146 17,-32 86,-97 122,-113 16,-8 24,-19 24,-37 0,-45 -11,-52 -66,-42 -27,5 -107,12 -179,16 -133,7 -164,16 -185,54 -8,16 -3,31 24,78 42,71 50,109 37,160 -28,105 -128,171 -231,153 z m 71,-149 c 42,-43 39,-85 -9,-110 -19,-10 -29,-9 -60,7 -29,15 -38,25 -40,51 -4,35 10,58 43,71 31,13 34,12 66,-19 z m 629,9 c 24,-24 26,-57 4,-88 -21,-30 -98,-32 -114,-3 -27,52 5,111 60,111 17,0 39,-9 50,-20 z"
       id="path5" />
    <path
       d="m 6424,6050 c -70,-16 -134,-91 -149,-171 -7,-40 15,-102 56,-160 l 21,-30 -21,-23 c -29,-31 -76,-44 -206,-57 -60,-6 -124,-14 -142,-19 -24,-6 -33,-4 -37,7 -13,33 -4,52 39,88 93,76 118,193 60,277 -38,54 -102,88 -168,88 -61,0 -107,-21 -151,-70 -74,-82 -66,-178 21,-272 23,-24 24,-29 13,-63 -13,-38 -158,-205 -312,-357 l -89,-87 7,-848 c 4,-466 8,-850 10,-852 2,-2 20,9 39,25 20,16 59,43 86,60 l 50,32 -1,752 v 751 l 47,62 c 77,100 209,232 260,259 l 48,26 237,-10 c 258,-11 272,-9 311,44 11,15 22,49 25,78 5,52 5,53 56,75 87,39 146,121 146,204 0,49 -41,133 -76,158 -57,39 -112,50 -180,33 z m -490,-142 c 36,-51 8,-108 -52,-108 -68,0 -94,58 -47,105 31,32 78,33 99,3 z"
       id="path6" />
    <path
       d="m 4996,5915 c -3,-11 -6,-593 -6,-1292 V 3350 h 90 91 l -3,1284 c -2,706 -5,1286 -8,1289 -3,3 -40,7 -82,9 -70,3 -77,2 -82,-17 z"
       id="path7" />
    <path
       d="m 6265,5262 c -22,-11 -48,-28 -57,-38 -26,-29 -48,-89 -48,-128 v -34 l -67,-12 c -78,-13 -106,-26 -166,-78 -24,-21 -76,-58 -116,-82 l -71,-45 v -502 c 0,-339 3,-504 10,-508 6,-4 47,27 90,69 44,42 83,76 87,76 5,0 9,168 11,373 l 3,372 52,53 c 29,30 84,76 124,104 40,28 75,58 78,66 4,11 18,3 54,-31 56,-53 83,-62 149,-53 120,16 191,137 149,253 -47,128 -177,194 -282,145 z m 140,-137 c 34,-33 34,-88 0,-111 -45,-30 -105,7 -105,64 0,68 58,94 105,47 z"
       id="path8" />
    <path
       d="m 3690,5259 c -69,-28 -114,-106 -115,-201 0,-58 4,-71 31,-110 48,-66 86,-88 156,-88 68,0 93,10 128,51 l 25,29 75,-49 c 41,-27 108,-78 148,-113 l 73,-63 7,-325 c 4,-179 6,-357 5,-397 -2,-60 1,-73 15,-78 9,-3 49,-36 89,-73 l 71,-68 7,141 c 3,77 5,308 3,514 l -3,375 -144,113 c -94,73 -159,117 -185,124 -23,6 -52,15 -66,18 -18,6 -28,19 -37,50 -31,106 -99,161 -199,160 -32,0 -70,-5 -84,-10 z m 140,-131 c 27,-30 26,-73 -5,-103 -32,-33 -68,-32 -94,1 -41,52 -12,124 49,124 17,0 38,-9 50,-22 z"
       id="path9" />
  </g>
</svg>
